<svg width="375" height="225" viewBox="0 0 375 225" fill="none" xmlns="http://www.w3.org/2000/svg">
  <path d="M32.71 -273.938C34.643 -277.286 38.9241 -278.433 42.2721 -276.5L579.561 33.7041C582.909 35.6371 584.057 39.9182 582.124 43.2662L408.494 344.002C406.273 347.849 400.378 345.557 401.338 341.22C424.848 235.047 335.555 137.861 227.775 152.314L116.397 167.25C15.6933 175.15 -82.5904 133.734 -147.268 56.1416L-153.146 49.0892C-153.375 48.8151 -153.408 48.4277 -153.229 48.1186L32.71 -273.938Z" fill="url(#paint0_linear)" />
  <path d="M-128.862 -191.557C-128.862 -195.423 -125.728 -198.557 -121.862 -198.557H427.138C431.004 -198.557 434.138 -195.423 434.138 -191.557V108.512C434.138 112.433 428.629 113.301 427.423 109.569C398.132 18.9169 288.233 -15.8479 212.135 41.4667L131.219 102.41C57.1439 152.107 -36.1396 163.647 -120.093 133.5L-128.352 130.534C-128.658 130.424 -128.862 130.134 -128.862 129.809V-191.557Z" fill="#003B5F" />
  <defs>
    <linearGradient id="paint0_linear" x1="84.9981" y1="34" x2="200.998" y2="230.5" gradientUnits="userSpaceOnUse">
      <stop stop-color="#003B5F" />
      <stop offset="1" stop-color="#5FC9DA" />
    </linearGradient>
  </defs>
</svg>